<svg width="252" height="37" viewBox="0 0 252 37" fill="none" xmlns="http://www.w3.org/2000/svg">
<path d="M9.184 8.88V15.696H20.176V22.032H9.184V29.424H21.616V36H0.976V2.304H21.616V8.88H9.184ZM39.4728 28.32L45.2808 9.216H54.0168L44.5128 36H34.3848L24.8807 9.216H33.6647L39.4728 28.32ZM70.1436 36.384C67.5196 36.384 65.1516 35.824 63.0396 34.704C60.9596 33.584 59.3116 31.984 58.0956 29.904C56.9116 27.824 56.3196 25.392 56.3196 22.608C56.3196 19.856 56.9276 17.44 58.1436 15.36C59.3596 13.248 61.0236 11.632 63.1356 10.512C65.2476 9.392 67.6156 8.832 70.2396 8.832C72.8636 8.832 75.2316 9.392 77.3436 10.512C79.4556 11.632 81.1196 13.248 82.3356 15.36C83.5516 17.44 84.1596 19.856 84.1596 22.608C84.1596 25.36 83.5356 27.792 82.2876 29.904C81.0716 31.984 79.3916 33.584 77.2476 34.704C75.1356 35.824 72.7676 36.384 70.1436 36.384ZM70.1436 29.28C71.7116 29.28 73.0396 28.704 74.1276 27.552C75.2476 26.4 75.8076 24.752 75.8076 22.608C75.8076 20.464 75.2636 18.816 74.1756 17.664C73.1196 16.512 71.8076 15.936 70.2396 15.936C68.6396 15.936 67.3116 16.512 66.2556 17.664C65.1996 18.784 64.6716 20.432 64.6716 22.608C64.6716 24.752 65.1836 26.4 66.2076 27.552C67.2636 28.704 68.5756 29.28 70.1436 29.28ZM97.2021 0.48V36H88.9941V0.48H97.2021ZM130.078 9.216V36H121.87V32.352C121.038 33.536 119.902 34.496 118.462 35.232C117.054 35.936 115.486 36.288 113.758 36.288C111.71 36.288 109.902 35.84 108.334 34.944C106.766 34.016 105.55 32.688 104.686 30.96C103.822 29.232 103.39 27.2 103.39 24.864V9.216H111.55V23.76C111.55 25.552 112.014 26.944 112.942 27.936C113.87 28.928 115.118 29.424 116.686 29.424C118.286 29.424 119.55 28.928 120.478 27.936C121.406 26.944 121.87 25.552 121.87 23.76V9.216H130.078ZM152.294 36L147.158 28.56L142.838 36H133.958L142.79 22.32L133.718 9.216H142.934L148.07 16.608L152.39 9.216H161.27L152.294 22.704L161.51 36H152.294ZM164.625 10.848C164.753 7.424 165.873 4.784 167.985 2.928C170.097 1.072 172.961 0.143998 176.577 0.143998C178.977 0.143998 181.025 0.559999 182.721 1.392C184.449 2.224 185.745 3.36 186.609 4.8C187.505 6.24 187.953 7.856 187.953 9.648C187.953 11.76 187.425 13.488 186.369 14.832C185.313 16.144 184.081 17.04 182.673 17.52V17.712C184.497 18.32 185.937 19.328 186.993 20.736C188.049 22.144 188.577 23.952 188.577 26.16C188.577 28.144 188.113 29.904 187.185 31.44C186.289 32.944 184.961 34.128 183.201 34.992C181.473 35.856 179.409 36.288 177.009 36.288C173.169 36.288 170.097 35.344 167.793 33.456C165.521 31.568 164.321 28.72 164.193 24.912H172.161C172.193 26.32 172.593 27.44 173.361 28.272C174.129 29.072 175.249 29.472 176.721 29.472C177.969 29.472 178.929 29.12 179.601 28.416C180.305 27.68 180.657 26.72 180.657 25.536C180.657 24 180.161 22.896 179.169 22.224C178.209 21.52 176.657 21.168 174.513 21.168H172.977V14.496H174.513C176.145 14.496 177.457 14.224 178.449 13.68C179.473 13.104 179.985 12.096 179.985 10.656C179.985 9.504 179.665 8.608 179.025 7.968C178.385 7.328 177.505 7.008 176.385 7.008C175.169 7.008 174.257 7.376 173.649 8.112C173.073 8.848 172.737 9.76 172.641 10.848H164.625ZM211.207 10.416C210.951 9.232 210.503 8.352 209.863 7.776C209.223 7.168 208.311 6.864 207.127 6.864C205.303 6.864 203.991 7.664 203.191 9.264C202.391 10.832 201.975 13.328 201.943 16.752C202.647 15.632 203.655 14.752 204.967 14.112C206.311 13.472 207.783 13.152 209.383 13.152C212.519 13.152 215.031 14.144 216.919 16.128C218.839 18.112 219.799 20.88 219.799 24.432C219.799 26.768 219.319 28.816 218.359 30.576C217.431 32.336 216.055 33.712 214.231 34.704C212.439 35.696 210.311 36.192 207.847 36.192C202.919 36.192 199.495 34.656 197.575 31.584C195.655 28.48 194.695 24.032 194.695 18.24C194.695 12.16 195.703 7.648 197.719 4.704C199.767 1.728 203.031 0.239997 207.511 0.239997C209.911 0.239997 211.927 0.719997 213.559 1.68C215.223 2.608 216.471 3.84 217.303 5.376C218.167 6.912 218.679 8.592 218.839 10.416H211.207ZM207.415 19.632C206.039 19.632 204.887 20.048 203.959 20.88C203.063 21.68 202.615 22.832 202.615 24.336C202.615 25.872 203.031 27.072 203.863 27.936C204.727 28.8 205.943 29.232 207.511 29.232C208.919 29.232 210.023 28.816 210.823 27.984C211.655 27.12 212.071 25.952 212.071 24.48C212.071 22.976 211.671 21.792 210.871 20.928C210.071 20.064 208.919 19.632 207.415 19.632ZM224.922 18C224.922 12.496 225.978 8.16 228.09 4.992C230.234 1.824 233.674 0.239997 238.41 0.239997C243.146 0.239997 246.57 1.824 248.682 4.992C250.826 8.16 251.898 12.496 251.898 18C251.898 23.568 250.826 27.936 248.682 31.104C246.57 34.272 243.146 35.856 238.41 35.856C233.674 35.856 230.234 34.272 228.09 31.104C225.978 27.936 224.922 23.568 224.922 18ZM243.834 18C243.834 14.768 243.482 12.288 242.778 10.56C242.074 8.8 240.618 7.92 238.41 7.92C236.202 7.92 234.746 8.8 234.042 10.56C233.338 12.288 232.986 14.768 232.986 18C232.986 20.176 233.114 21.984 233.37 23.424C233.626 24.832 234.138 25.984 234.906 26.88C235.706 27.744 236.874 28.176 238.41 28.176C239.946 28.176 241.098 27.744 241.866 26.88C242.666 25.984 243.194 24.832 243.45 23.424C243.706 21.984 243.834 20.176 243.834 18Z" fill="#5932EA"/>
</svg>
